HIERARCHY
ROOT Hips
{
	OFFSET 0.000000 8.830580 0.000000
	CHANNELS 6 Xposition Yposition Zposition Zrotation Yrotation Xrotation 
	JOINT Spine
	{
		OFFSET 0.000000 0.010000 0.000000
		CHANNELS 3 Zrotation Yrotation Xrotation
		JOINT Spine1
		{
			OFFSET 0.000000 2.459130 0.000000
			CHANNELS 3 Zrotation Yrotation Xrotation
			JOINT Neck
			{
				OFFSET 0.000000 2.484630 0.000000
				CHANNELS 3 Zrotation Yrotation Xrotation
				JOINT Head_virtual
				{
					OFFSET 0.000000 0.000000 0.000000
					CHANNELS 3 Zrotation Yrotation Xrotation
					JOINT Head
					{
						OFFSET 0.000000 0.927525 0.000000
						CHANNELS 3 Zrotation Yrotation Xrotation
						End Site
						{
							OFFSET 0.000000 0.000000 0.000000
						}
					}
				}
				JOINT LeftUpArm_virtual
				{
					OFFSET 0.000000 0.000000 0.000000
					CHANNELS 3 Zrotation Yrotation Xrotation
					JOINT LeftUpArm
					{
						OFFSET 1.248820 0.000000 0.000000
						CHANNELS 3 Zrotation Yrotation Xrotation
						JOINT LeftForeArm
						{
							OFFSET 2.597580 0.000000 0.000000
							CHANNELS 3 Zrotation Yrotation Xrotation
							JOINT LeftHand
							{
								OFFSET 2.455420 0.000000 0.000000
								CHANNELS 3 Zrotation Yrotation Xrotation
								End Site
								{
									OFFSET 0.000000 0.000000 0.000000
								}
							}
						}
					}
				}
				JOINT RightUpArm_virtual
				{
					OFFSET -0.000000 -0.000000 -0.000000
					CHANNELS 3 Zrotation Yrotation Xrotation
					JOINT RightUpArm
					{
						OFFSET -1.248820 -0.000000 -0.000000
						CHANNELS 3 Zrotation Yrotation Xrotation
						JOINT RightForeArm
						{
							OFFSET -2.597580 -0.000000 -0.000000
							CHANNELS 3 Zrotation Yrotation Xrotation
							JOINT RightHand
							{
								OFFSET -2.455420 -0.000000 -0.000000
								CHANNELS 3 Zrotation Yrotation Xrotation
								End Site
								{
									OFFSET 0.000000 0.000000 0.000000
								}
							}
						}
					}
				}
			}
		}
	}
	JOINT LeftUpLeg
	{
		OFFSET 1.271939 0.000000 0.000000
		CHANNELS 3 Zrotation Yrotation Xrotation
		JOINT LeftLowLeg
		{
			OFFSET 0.000000 -4.342910 0.000000
			CHANNELS 3 Zrotation Yrotation Xrotation
			JOINT LeftFoot
			{
				OFFSET 0.000000 -4.487670 0.000000
				CHANNELS 3 Zrotation Yrotation Xrotation
				JOINT LeftToeBase
				{
					OFFSET 0.000000 0.000000 1.515070
					CHANNELS 3 Zrotation Yrotation Xrotation
					End Site
					{
						OFFSET 0.000000 0.000000 0.000000
					}
				}
			}
		}
	}
	JOINT RightUpLeg
	{
		OFFSET -1.271939 0.000000 0.000000
		CHANNELS 3 Zrotation Yrotation Xrotation
		JOINT RightLowLeg
		{
			OFFSET 0.000000 -4.342910 0.000000
			CHANNELS 3 Zrotation Yrotation Xrotation
			JOINT RightFoot
			{
				OFFSET 0.000000 -4.487670 0.000000
				CHANNELS 3 Zrotation Yrotation Xrotation
				JOINT RightToeBase
				{
					OFFSET 0.000000 0.000000 1.515070
					CHANNELS 3 Zrotation Yrotation Xrotation
					End Site
					{
						OFFSET 0.000000 0.000000 0.000000
					}
				}
			}
		}
	}
}
MOTION
Frames: 14
Frame Time: 0.041667
-25.067116 8.950807 37.852544 -173.981410 22.596058 -172.045798 4.338428 4.582075 -16.708862 -3.914320 -0.663378 16.084107 0.000000 0.000000 0.000000 28.801691 -1.370162 -6.435376 -9.407776 -4.917915 -78.808997 -24.252600 -1.469600 7.407910 -56.871601 -23.954201 -27.636000 180.000000 -38.998993 180.000000 94.773201 52.543900 23.362200 20.875601 -6.582040 0.543196 22.966600 -7.085860 79.334991 0.000000 81.563202 0.000000 -102.045998 50.629501 -30.481600 0.018506 -14.782540 1.958312 0.000000 0.000000 16.314899 -0.910878 14.509419 -14.428777 0.000000 0.000000 -10.937190 5.711823 10.002607 -21.926847 0.000000 0.000000 9.260610 6.410280 -18.812003 4.480702 0.000000 0.000000 -23.726600 
-24.976748 8.924514 37.730440 -173.840104 22.282549 -171.920303 4.454606 4.421721 -17.211017 -3.645189 -0.823992 15.733169 0.000000 0.000000 0.000000 29.062898 -1.810764 -6.308849 -9.714933 -5.298664 -78.517359 -24.171900 -1.210720 7.361870 -56.868401 -23.816900 -27.775299 -180.000000 -39.031006 180.000000 94.866501 54.164001 23.585800 20.849501 -6.662720 0.612956 22.724501 -7.006000 79.433014 0.000000 81.824203 0.000000 -101.730003 50.741402 -30.766100 0.136178 -15.214041 2.833505 0.000000 0.000000 16.366400 -0.958388 14.814071 -15.120895 0.000000 0.000000 -11.019230 6.230878 10.105519 -21.334973 0.000000 0.000000 9.571960 5.895083 -19.009201 4.930172 0.000000 0.000000 -23.286330 
-24.881417 8.902421 37.608968 -173.425485 22.122619 -171.693530 4.756192 4.421459 -17.764822 -3.309253 -0.944410 15.409746 0.000000 0.000000 0.000000 29.259288 -2.230225 -6.076042 -9.972492 -5.761955 -78.349389 -24.299801 -1.124070 7.412840 -56.583500 -23.731899 -27.991199 180.000000 -39.011993 -180.000000 94.669998 54.704601 23.711599 20.956100 -6.697860 0.557376 22.421301 -7.011260 79.384003 0.000000 82.001099 0.000000 -101.605003 50.773998 -30.866800 0.471301 -15.587908 3.736859 0.000000 0.000000 16.459299 -1.012907 15.255445 -15.778709 0.000000 0.000000 -11.145170 6.625652 11.327983 -20.668084 0.000000 0.000000 9.052090 7.811762 -19.495791 6.939362 0.000000 0.000000 -21.836750 
-24.780442 8.888912 37.491221 -172.732159 22.187818 -171.272597 5.137205 4.464775 -18.438259 -2.722030 -0.996481 15.267865 0.000000 0.000000 0.000000 29.281501 -2.545453 -6.044782 -10.158418 -6.062054 -78.079557 -24.691200 -1.095920 7.430410 -56.186600 -23.769300 -28.354401 180.000000 -38.899994 180.000000 94.306503 54.468601 23.768900 21.191200 -6.712660 0.576563 22.026800 -6.789770 79.095001 0.000000 82.117897 0.000000 -102.643997 50.960400 -31.794201 1.026475 -15.898049 4.608647 0.000000 0.000000 16.528400 -1.109621 15.913036 -16.270075 0.000000 0.000000 -11.329100 6.994247 13.386604 -20.434116 0.000000 0.000000 9.210880 7.179262 -20.193210 10.526535 0.000000 0.000000 -22.850570 
-24.676876 8.879974 37.375826 -172.007082 22.485677 -170.687239 5.454667 4.472924 -19.229861 -2.013531 -0.997543 15.104244 0.000000 0.000000 0.000000 29.101274 -2.799667 -6.040075 -10.387327 -6.302635 -77.616901 -24.896900 -1.093360 7.478950 -56.153400 -23.774099 -28.651199 180.000000 -38.720001 -180.000000 93.954002 53.405998 22.953699 21.324800 -6.692570 0.646228 21.666201 -6.286840 78.996002 0.000000 82.386398 0.000000 -104.360001 51.142200 -32.753101 1.688943 -15.668448 5.287613 0.000000 0.000000 16.680099 -1.237513 16.211779 -16.551521 0.000000 0.000000 -11.695350 7.256475 15.756644 -20.807891 0.000000 0.000000 10.444800 7.698163 -20.938044 11.953564 0.000000 0.000000 -21.342820 
-24.570749 8.872892 37.259237 -171.470815 22.804213 -170.105935 5.595874 4.252204 -20.079040 -1.269018 -1.057452 14.869291 0.000000 0.000000 0.000000 28.622354 -2.854877 -5.822862 -10.678375 -6.510763 -77.186430 -24.869801 -1.013240 7.486340 -56.399700 -23.730301 -28.803600 180.000000 -38.460007 -180.000000 94.478401 51.615501 22.437901 21.241800 -6.601590 0.697994 21.336599 -5.674930 79.309998 0.000000 82.931602 0.000000 -105.832001 51.092800 -33.114201 2.209426 -15.444947 5.860814 0.000000 0.000000 16.941099 -1.621964 16.240593 -16.660518 0.000000 0.000000 -12.142590 7.682785 17.455222 -21.357457 0.000000 0.000000 12.216000 8.485628 -21.738845 11.387718 0.000000 0.000000 -20.390640 
-24.464802 8.870325 37.144519 -171.080237 23.115274 -169.684686 5.680708 3.931206 -20.756686 -0.629314 -1.205236 14.584098 0.000000 0.000000 0.000000 28.251903 -2.879440 -5.513701 -11.049395 -6.692248 -76.859864 -24.766399 -0.887771 7.453970 -56.595100 -23.748800 -28.882999 180.000000 -38.197998 -180.000000 95.779404 49.295601 23.253799 21.094500 -6.529510 0.766897 20.931900 -4.922080 79.928009 0.000000 83.581200 0.000000 -106.869003 50.853500 -32.994801 2.558486 -15.364376 6.363976 0.000000 0.000000 17.517900 -2.096689 16.226011 -16.520668 0.000000 0.000000 -12.883150 8.261492 18.607834 -21.668843 0.000000 0.000000 14.066700 8.056365 -21.910269 10.327993 0.000000 0.000000 -19.921660 
-24.360089 8.873904 37.033910 -170.784709 23.366290 -169.564733 5.733304 3.514931 -21.140772 -0.081559 -1.460913 14.323156 0.000000 0.000000 0.000000 27.659187 -2.711459 -5.143144 -11.222728 -6.773536 -76.484224 -24.659300 -0.785908 7.461600 -56.646999 -23.960300 -29.056900 180.000000 -38.003006 -180.000000 96.641602 47.031898 23.067200 20.921600 -6.393790 0.848106 20.460501 -4.187170 80.636993 0.000000 84.125603 0.000000 -107.329002 50.661800 -32.798500 2.821757 -15.276896 6.832226 0.000000 0.000000 18.583300 -2.752141 15.849794 -16.146885 0.000000 0.000000 -14.139691 8.891632 19.863031 -21.444743 0.000000 0.000000 15.368300 7.415033 -22.809214 9.512945 0.000000 0.000000 -20.198750 
-24.257267 8.883290 36.925222 -170.573019 23.444242 -169.675632 5.830313 3.059454 -21.344810 0.225939 -1.864331 14.090312 0.000000 0.000000 0.000000 27.195827 -2.547878 -4.716218 -11.454233 -6.808747 -76.063786 -24.480801 -0.705637 7.486230 -56.603401 -24.247200 -29.118500 180.000000 -37.985992 -180.000000 96.587502 44.643700 21.388599 20.754200 -6.295830 0.899875 20.021500 -3.510280 81.368988 0.000000 84.519096 0.000000 -106.753998 50.473701 -31.988800 3.062433 -15.222616 7.146157 0.000000 0.000000 20.183201 -3.408397 15.153414 -15.448438 0.000000 0.000000 -15.709338 9.595288 20.888470 -20.525447 0.000000 0.000000 15.732700 6.741178 -23.797441 8.908194 0.000000 0.000000 -20.104010 
-24.158018 8.895963 36.822076 -170.463916 23.277074 -169.955854 5.936444 2.609967 -21.331108 0.309989 -2.345211 13.779869 0.000000 0.000000 0.000000 26.883350 -2.399637 -4.254797 -11.739138 -6.828400 -75.729722 -24.342501 -0.720640 7.542310 -56.440601 -24.591999 -29.381901 -180.000000 -37.951996 -180.000000 95.771004 43.397202 19.727800 20.564199 -6.329600 0.840132 19.805901 -2.968910 81.996002 0.000000 84.733704 0.000000 -105.695000 50.275600 -31.261000 3.353273 -15.162079 7.150741 0.000000 0.000000 22.324301 -4.475782 13.902621 -14.778444 0.000000 0.000000 -17.175980 10.444227 21.012848 -19.168423 0.000000 0.000000 15.550200 5.837213 -24.273335 8.609999 0.000000 0.000000 -20.191700 
-24.065565 8.908559 36.724674 -170.426337 22.773587 -170.132662 6.113787 2.147640 -21.278674 0.158922 -2.958576 13.188895 0.000000 0.000000 0.000000 26.605277 -2.241462 -3.610951 -11.908069 -6.933755 -75.456352 -24.107000 -0.709037 7.450670 -56.384800 -24.848000 -29.196899 -180.000000 -38.044998 180.000000 95.327499 42.310001 19.753000 20.404200 -6.401360 0.902000 19.769100 -2.673060 82.145996 0.000000 84.863297 0.000000 -104.396004 50.388802 -30.605200 3.784383 -15.210037 6.495119 0.000000 0.000000 25.139999 -5.424098 12.374009 -13.871970 0.000000 0.000000 -19.004980 11.270943 20.134835 -17.862368 0.000000 0.000000 15.146900 5.447233 -23.874824 8.125293 0.000000 0.000000 -19.984790 
-23.978850 8.917459 36.635548 -170.445786 22.272532 -170.245583 6.287115 1.826511 -21.153464 -0.060459 -3.467569 12.498051 0.000000 0.000000 0.000000 26.444778 -2.244814 -3.158877 -12.070537 -7.056182 -75.021001 -23.915100 -0.781823 7.516980 -56.313801 -25.392599 -29.072001 -180.000000 -37.994003 180.000000 94.757698 42.614399 19.931299 20.174299 -6.610780 0.803738 19.982800 -2.615020 81.984009 0.000000 84.974297 0.000000 -103.025002 50.819199 -30.172001 4.391439 -14.750599 5.275750 0.000000 0.000000 28.596800 -5.588989 10.727902 -12.470774 0.000000 0.000000 -21.498750 12.033651 18.656365 -16.799937 0.000000 0.000000 14.889000 5.444161 -22.839351 7.504688 0.000000 0.000000 -19.831270 
-23.896358 8.922579 36.552923 -170.411987 21.866546 -170.146134 6.511935 1.666440 -21.085544 -0.268213 -3.870103 11.727221 0.000000 0.000000 0.000000 26.251322 -2.296531 -2.826099 -12.215642 -7.205338 -74.573132 -23.710100 -0.828818 7.590690 -56.368599 -25.974001 -28.714100 180.000000 -37.882996 -180.000000 93.875198 43.303699 20.450001 19.962200 -6.903130 0.650346 20.270700 -2.713590 81.583008 0.000000 85.127701 0.000000 -101.639000 51.589199 -29.813999 5.130783 -14.161188 3.589424 0.000000 0.000000 32.408199 -6.834919 8.435292 -11.320757 0.000000 0.000000 -22.840640 12.578377 17.540580 -16.086183 0.000000 0.000000 14.837400 5.793356 -21.478480 6.801222 0.000000 0.000000 -19.801810 
-23.819801 8.923620 36.477186 -170.343244 21.644764 -169.963155 6.770040 1.652176 -20.980734 -0.387975 -4.159092 10.996819 0.000000 0.000000 0.000000 25.975636 -2.395194 -2.679595 -12.325286 -7.403526 -74.184105 -23.586399 -0.901650 7.522700 -56.484901 -26.419500 -28.203699 180.000000 -37.776993 -180.000000 92.498299 44.177200 20.552700 19.801300 -7.131440 0.532139 20.516199 -2.959250 81.058014 0.000000 85.344299 0.000000 -100.602997 52.233601 -29.632999 5.951542 -13.166021 1.587499 0.000000 0.000000 36.597198 -7.947003 6.217892 -10.300653 0.000000 0.000000 -22.491880 13.130706 16.387102 -15.517440 0.000000 0.000000 14.816200 5.913192 -20.112977 6.172982 0.000000 0.000000 -19.589030 
